<?xml version="1.0" encoding="UTF-8"?>
<svg width="40px" height="40px" viewBox="0 0 40 40" version="1.1" xmlns="http://www.w3.org/2000/svg" xmlns:xlink="http://www.w3.org/1999/xlink">
    <!-- Generator: Sketch 61 (89581) - https://sketch.com -->
    <title>logo vetorizada 1080px</title>
    <desc>Created with Sketch.</desc>
    <defs>
        <path d="M0.0384428224,18.9650238 C0.0384428224,29.9796913 8.97557178,38.9088983 20,38.9088983 L20,38.9088983 C31.0246715,38.9088983 39.9615572,29.9796913 39.9615572,18.9650238 L39.9615572,18.9650238 C39.9615572,7.95025905 31.0246715,-0.978948003 20,-0.978948003 L20,-0.978948003 C8.97557178,-0.978948003 0.0384428224,7.95025905 0.0384428224,18.9650238" id="path-1"></path>
    </defs>
    <g id="Layout" stroke="none" stroke-width="1" fill="none" fill-rule="evenodd">
        <g id="01---Dashboard" transform="translate(-40.000000, -19.000000)">
            <g id="logo-vetorizada-1080px" transform="translate(40.000000, 19.000000)">
                <path d="M40,19.9581443 C40,30.9806389 31.064675,39.9161426 20.0419287,39.9161426 C9.01947435,39.9161426 0.0838574423,30.9806389 0.0838574423,19.9581443 C0.0838574423,8.93550363 9.01947435,0 20.0419287,0 C31.064675,0 40,8.93550363 40,19.9581443" id="Fill-1" fill="#181F75"></path>
                <g id="Group-5" transform="translate(0.000000, 1.000000)">
                    <mask id="mask-2" fill="white">
                        <use xlink:href="#path-1"></use>
                    </mask>
                    <g id="Clip-4"></g>
                    <path d="M29.7712798,21.4199249 C28.4435426,21.4199249 27.3674842,20.3447659 27.3674842,19.0185386 C27.3674842,17.6922628 28.4435426,16.6170552 29.7712798,16.6170552 C31.0987251,16.6170552 32.1748321,17.6922628 32.1748321,19.0185386 C32.1748321,20.3447659 31.0987251,21.4199249 29.7712798,21.4199249 M32.0635912,14.6654426 C31.0800389,14.1689947 30.0070462,14.1372466 29.9000389,14.1350101 C29.5127883,14.1270366 29.0555134,14.1222719 28.5159027,14.340814 C27.9405255,14.5738446 27.5705499,14.9397506 27.3788224,15.1608209 L27.3788224,14.1331626 L24.8913285,14.1331626 L24.8913285,41.1960641 L27.3788224,41.1960641 L27.3788224,23.2079347 C27.7294793,23.4191353 28.1085061,23.5876486 28.50909,23.7063274 C28.7510852,23.7780889 29.26291,23.9092142 29.9000389,23.9070749 C30.0337129,23.9065888 31.1775572,23.8900583 32.2775085,23.2664233 C33.5240779,22.5594068 34.7910852,21.0284939 34.79055,19.0210182 C34.7899659,16.8645255 33.3280681,15.3033716 32.0635912,14.6654426" id="Fill-3" fill="#FFFFFF" mask="url(#mask-2)"></path>
                </g>
                <polygon id="Fill-6" fill="#FFFFFF" points="5.7945767 15.1781971 14.1719078 15.1781971 9.77580791 22.518819 13.7434696 22.518819 13.7434696 24.9895178 5.28301887 24.9895178 9.77580791 17.6725907 5.82205628 17.6725907"></polygon>
                <path d="M20.1599769,21.9257166 C19.6040953,22.4027733 19.0282352,22.5216848 18.9152027,22.5433846 C18.5905151,22.6058569 18.0374667,22.7123129 17.6100045,22.3958157 C17.5331189,22.3390847 17.2768175,22.1494297 17.2489257,21.8427607 C17.2238671,21.5672793 17.3972748,21.3550487 17.4434354,21.2987555 C17.830159,20.8257857 18.6061951,20.8670933 19.095449,20.8931234 C19.4608264,20.9125852 20.0378099,20.9916487 20.7016439,21.3033777 C20.5936915,21.4706516 20.4208211,21.7017602 20.1599769,21.9257166 M19.2982139,15.1862012 C16.2994331,15.0225277 15.1882073,17.4232836 15.1882073,17.4232836 L16.7949883,18.3670824 C17.2437967,17.8854034 17.8839887,17.583308 18.5956441,17.583308 C18.7007145,17.583308 18.9804138,17.5900223 19.3241518,17.6926345 C19.5448436,17.7586586 19.9193065,17.8704665 20.2665127,18.2009761 C20.5017121,18.4247865 20.6406825,18.6690804 20.7246998,18.8673959 C20.7830722,18.9922432 20.8326522,19.1270647 20.828891,19.2222327 C20.6438088,19.1933807 20.4330818,19.1637501 20.1932907,19.1301299 C19.1179187,18.9796904 18.5802572,18.9045193 18.0246687,18.9563362 C17.2307057,19.0303396 16.1909434,19.1272106 15.4570625,19.949422 C14.7809678,20.7072148 14.7610382,21.6372931 14.7589704,21.8859659 C14.7573258,22.1465591 14.7840941,23.0902605 15.4821211,23.8970971 C16.2971373,24.8389983 17.4462686,24.9226839 18.0246687,24.9646241 C18.5378578,25.0020393 19.2119008,25.0509857 19.868945,24.6668103 C20.0312156,24.5718368 20.3596155,24.352308 20.828891,23.499493 L20.828891,24.9696841 L23.2285115,24.9696841 L23.2285115,18.7931979 C23.2285115,18.3266505 23.1134763,17.864482 22.8773976,17.461526 C22.1030223,16.1397795 20.6802488,15.2616642 19.2982139,15.1862012" id="Fill-7" fill="#FFFFFF"></path>
            </g>
        </g>
    </g>
</svg>